solid triangle_finger
  facet normal 0 1 0
    outer loop
      vertex 0.000000 0.002500 0.000000
      vertex -0.085000 0.002500 -0.025000
      vertex -0.085000 0.002500 0.025000
    endloop
  endfacet
  facet normal 0 -1 0
    outer loop
      vertex 0.000000 -0.002500 0.000000
      vertex -0.085000 -0.002500 0.025000
      vertex -0.085000 -0.002500 -0.025000
    endloop
  endfacet
  facet normal 0.282166 0 -0.959366
    outer loop
      vertex 0.000000 -0.002500 0.000000
      vertex -0.085000 -0.002500 -0.025000
      vertex -0.085000 0.002500 -0.025000
    endloop
  endfacet
  facet normal 0.282166 0 -0.959366
    outer loop
      vertex 0.000000 -0.002500 0.000000
      vertex -0.085000 0.002500 -0.025000
      vertex 0.000000 0.002500 0.000000
    endloop
  endfacet
  facet normal 0.282166 0 0.959366
    outer loop
      vertex 0.000000 -0.002500 0.000000
      vertex 0.000000 0.002500 0.000000
      vertex -0.085000 0.002500 0.025000
    endloop
  endfacet
  facet normal 0.282166 0 0.959366
    outer loop
      vertex 0.000000 -0.002500 0.000000
      vertex -0.085000 0.002500 0.025000
      vertex -0.085000 -0.002500 0.025000
    endloop
  endfacet
  facet normal -1 0 0
    outer loop
      vertex -0.085000 -0.002500 -0.025000
      vertex -0.085000 -0.002500 0.025000
      vertex -0.085000 0.002500 0.025000
    endloop
  endfacet
  facet normal -1 0 0
    outer loop
      vertex -0.085000 -0.002500 -0.025000
      vertex -0.085000 0.002500 0.025000
      vertex -0.085000 0.002500 -0.025000
    endloop
  endfacet
endsolid triangle_finger
